<svg width="22" height="23" viewBox="0 0 22 23" fill="none" xmlns="http://www.w3.org/2000/svg">
<path d="M11 0C4.92339 0 0 4.98633 0 11.1406C0 17.2949 4.92339 22.2812 11 22.2812C17.0766 22.2812 22 17.2949 22 11.1406C22 4.98633 17.0766 0 11 0ZM11 4.3125C13.1556 4.3125 14.9032 6.08242 14.9032 8.26562C14.9032 10.4488 13.1556 12.2188 11 12.2188C8.84435 12.2188 7.09677 10.4488 7.09677 8.26562C7.09677 6.08242 8.84435 4.3125 11 4.3125ZM11 19.7656C8.39637 19.7656 6.06331 18.5707 4.50202 16.702C5.33589 15.1117 6.96814 14.0156 8.87097 14.0156C8.97742 14.0156 9.08387 14.0336 9.18589 14.065C9.7625 14.2537 10.3657 14.375 11 14.375C11.6343 14.375 12.2419 14.2537 12.8141 14.065C12.9161 14.0336 13.0226 14.0156 13.129 14.0156C15.0319 14.0156 16.6641 15.1117 17.498 16.702C15.9367 18.5707 13.6036 19.7656 11 19.7656Z" fill="#666666"/>
</svg>
