<svg xmlns="http://www.w3.org/2000/svg" version="1.1" xmlns:xlink="http://www.w3.org/1999/xlink" xmlns:svgjs="http://svgjs.com/svgjs" viewBox="0 0 290 68" style="width: 100%; height: 100%;"><defs id="SvgjsDefs2505"></defs><g id="SvgjsG2506" rel="mainfill" name="main_text" xmlns:name="main_text" transform="translate(80.22000002861017,-207.24518424714068)"><path d="M19.30 218.03L14.99 230.92L10.72 218.03L2.05 218.03C1.87 218.03 1.78 218.24 1.78 218.48C1.78 218.74 1.87 218.92 2.05 218.92L4.25 218.92L4.25 239.11L2.05 239.11C1.87 239.11 1.78 239.32 1.78 239.55C1.78 239.82 1.87 240 2.05 240L7.48 240C7.66 240 7.75 239.79 7.75 239.55C7.75 239.32 7.66 239.11 7.48 239.11L5.14 239.11L5.14 220.11L11.76 239.97C11.76 240.06 12.17 240.12 12.32 240.12C12.38 240.12 12.85 240.06 12.85 239.97L19.47 220.23L19.47 239.11L17.25 239.11C17.07 239.11 16.98 239.32 16.98 239.55C16.98 239.82 17.07 240 17.25 240L27.64 240C27.82 240 27.91 239.79 27.91 239.55C27.91 239.32 27.82 239.11 27.64 239.11L25.41 239.11L25.41 218.92L27.64 218.92C27.82 218.92 27.91 218.72 27.91 218.48C27.91 218.24 27.82 218.03 27.64 218.03ZM40.05 240.30C43.46 240.30 46.43 238.19 46.64 235.43C46.64 235.28 46.43 235.19 46.25 235.19C46.07 235.19 45.89 235.28 45.89 235.43C45.54 238.13 42.81 239.55 40.17 239.55C37.82 239.55 36.75 237.71 36.75 232.58L46.82 232.58C46.96 232.58 47.02 232.37 47.02 232.37C46.96 226.70 42.99 223.94 39.10 223.94C35.15 223.94 31.17 226.76 31.17 232.10C31.17 236.97 35.53 240.30 40.05 240.30ZM36.72 231.84L36.72 228.24C36.72 225.84 38.03 224.62 39.33 224.62C40.64 224.62 41.95 225.84 41.95 228.24L41.95 231.84ZM61.54 237.65C62.28 239.64 63.85 240.30 65.40 240.30C67.39 240.30 69.35 239.05 69.35 236.79C69.35 236.62 69.17 236.53 68.99 236.53C68.81 236.53 68.60 236.62 68.60 236.79C68.60 237.98 68.01 238.58 67.45 238.58C66.85 238.58 66.29 237.98 66.29 236.82L66.29 217.05L67.98 217.05C68.13 217.05 68.22 216.87 68.22 216.70C68.22 216.52 68.13 216.31 67.98 216.31L61.27 216.31C61.01 216.31 60.95 216.37 60.95 216.58L60.95 223.38L61.24 225.69C59.64 224.27 58.24 223.97 56.88 223.97C52.28 223.97 49.99 227.95 49.99 232.07C49.99 236.85 53.17 240.30 56.64 240.30C58.30 240.30 60.06 239.53 61.54 237.65ZM55.60 234.83L55.60 228.75C55.60 226.34 57.03 225.13 58.42 225.13C59.85 225.13 61.24 226.34 61.24 228.75L61.24 234.80C61.24 237.48 59.82 238.84 58.39 238.84C57.00 238.84 55.60 237.54 55.60 234.83ZM81.67 240C81.73 240.12 82.11 240.15 82.23 240.15C82.29 240.15 82.74 240.09 82.77 240L90.96 218.92L93.33 218.92C93.51 218.92 93.60 218.72 93.60 218.48C93.60 218.24 93.51 218.03 93.33 218.03L87.75 218.03C87.57 218.03 87.49 218.24 87.49 218.48C87.49 218.72 87.57 218.92 87.75 218.92L89.98 218.92L84.84 232.04L79.23 218.92L81.61 218.92C81.79 218.92 81.87 218.72 81.87 218.48C81.87 218.24 81.79 218.03 81.61 218.03L70.36 218.03C70.18 218.03 70.09 218.24 70.09 218.48C70.09 218.72 70.18 218.92 70.36 218.92L72.70 218.92ZM96.84 218.98C96.84 220.41 98.05 221.62 99.48 221.62C100.96 221.62 102.15 220.41 102.15 218.98C102.15 217.50 100.96 216.31 99.48 216.31C98.05 216.31 96.84 217.50 96.84 218.98ZM102.15 224.59C102.15 224.36 102.00 224.24 101.76 224.24L95.11 224.24C94.97 224.24 94.88 224.44 94.88 224.62C94.88 224.80 94.97 224.98 95.11 224.98L96.81 224.98L96.81 236.73C96.81 239.11 98.91 240.30 101.02 240.30C103.13 240.30 105.24 239.11 105.24 236.73C105.24 236.56 105.06 236.47 104.88 236.47C104.70 236.47 104.50 236.56 104.50 236.73C104.50 237.92 103.90 238.52 103.31 238.52C102.71 238.52 102.15 237.92 102.15 236.73ZM120.44 227.18C120.44 225.16 117.41 223.94 114.26 223.94C110.20 223.94 107.52 225.84 107.52 228.66C107.52 233.50 116.04 234.89 116.04 237.57C116.04 239.23 114.59 239.61 113.04 239.61C112.24 239.61 111.44 239.53 110.82 239.44C111.71 238.90 112.07 238.04 112.07 237.18C112.07 235.49 110.79 234.63 109.54 234.63C108.27 234.63 107.02 235.49 107.02 237.15C107.02 239.44 110.02 240.30 113.19 240.30C116.90 240.30 120.88 238.78 120.88 235.34C120.88 230.32 112.04 230.71 112.04 226.61C112.04 225.04 113.04 224.62 114.38 224.62C115.12 224.62 115.95 224.74 116.76 224.89C115.84 225.39 115.45 226.23 115.45 227.18C115.45 228.87 116.70 229.73 117.94 229.73C119.31 229.73 120.44 228.78 120.44 227.18ZM140.47 232.13C140.47 227.38 137.27 223.94 132.01 223.94C126.76 223.94 123.55 227.38 123.55 232.13C123.55 236.88 126.76 240.30 132.01 240.30C137.27 240.30 140.47 236.88 140.47 232.13ZM134.83 233.56C134.83 237.45 134.45 239.64 132.01 239.64C129.58 239.64 129.19 237.45 129.19 233.56L129.19 230.68C129.19 226.79 129.58 224.59 132.01 224.59C134.45 224.59 134.83 226.79 134.83 230.68ZM150.36 225.69L150.06 225.69L150.06 224.47C150.06 224.33 150.00 224.24 149.83 224.24L143.32 224.24C143.18 224.24 143.09 224.44 143.09 224.62C143.09 224.80 143.18 224.98 143.32 224.98L145.02 224.98L145.02 240L150.36 240L150.36 226.85C151.19 225.51 152.85 224.68 153.83 224.68C154.49 224.68 154.99 224.89 155.41 225.31C153.66 225.36 152.88 226.49 152.88 227.65C152.88 228.96 153.86 230.29 155.56 230.29C157.37 230.29 158.23 229.05 158.23 227.65C158.23 225.90 156.86 223.94 154.28 223.94C152.85 223.94 151.34 224.56 150.36 225.69ZM167.46 237.30C167.46 235.58 166.15 234.24 164.58 234.24C163.04 234.24 161.73 235.58 161.73 237.30C161.73 238.90 163.07 240.30 164.58 240.30C166.09 240.30 167.46 238.90 167.46 237.30ZM178.95 225.69L178.65 225.69L178.65 224.47C178.65 224.33 178.59 224.24 178.41 224.24L171.91 224.24C171.76 224.24 171.68 224.44 171.68 224.62C171.68 224.80 171.76 224.98 171.91 224.98L173.60 224.98L173.60 240L178.95 240L178.95 226.85C179.78 225.51 181.44 224.68 182.42 224.68C183.07 224.68 183.58 224.89 183.99 225.31C182.24 225.36 181.47 226.49 181.47 227.65C181.47 228.96 182.45 230.29 184.14 230.29C185.95 230.29 186.82 229.05 186.82 227.65C186.82 225.90 185.45 223.94 182.87 223.94C181.44 223.94 179.93 224.56 178.95 225.69ZM201.33 237.68C201.93 239.44 203.59 240.30 205.28 240.30C207.33 240.30 209.41 238.99 209.41 236.76C209.41 236.59 209.23 236.50 209.05 236.50C208.87 236.50 208.66 236.59 208.66 236.76C208.66 237.95 208.04 238.52 207.42 238.52C206.79 238.52 206.20 237.95 206.20 236.76L206.20 224.59C206.20 224.36 206.05 224.24 205.78 224.24L200.86 224.24L200.86 235.67C200.86 237.83 199.52 238.93 198.18 238.93C196.85 238.93 195.51 237.83 195.51 235.67L195.51 224.59C195.51 224.33 195.36 224.24 195.16 224.24L188.80 224.24C188.66 224.24 188.57 224.44 188.57 224.62C188.57 224.80 188.66 224.98 188.80 224.98L190.17 224.98L190.17 234.83C190.17 238.43 193.14 240.30 196.14 240.30C198.18 240.30 200.14 239.50 201.33 237.68Z" fill="#000000" style="fill: #027287;"></path></g><g id="SvgjsG2507" rel="mainfill" name="slogan_text" xmlns:name="slogan_text" transform="translate(90.45000696182245,-184.59517509186725)" fill="#000000"><path d="M3.73 233.30C3.66 233.56 3.63 233.86 3.63 234.21C3.63 234.50 3.75 234.64 3.97 234.64L9.40 234.64C9.18 235.96 8.60 237.00 7.68 237.75C6.76 238.49 5.65 238.86 4.35 238.86C3.28 238.86 2.34 238.63 1.54 238.20C1.40 238.42 1.34 238.66 1.34 238.92C1.34 239.20 1.67 239.48 2.32 239.77C2.98 240.07 3.75 240.21 4.60 240.21C6.47 240.21 8.01 239.60 9.25 238.40C10.48 237.19 11.08 235.58 11.08 233.56C11.08 231.74 10.55 230.30 9.49 229.25C8.43 228.19 7.13 227.65 5.59 227.65C3.45 227.65 1.77 228.66 1.02 230.20C0.97 230.32 0.94 230.41 0.94 230.49C0.94 230.75 1.09 230.96 1.40 231.08C1.65 231.21 1.94 231.28 2.29 231.31C2.86 229.85 4.08 229.02 5.67 229.02C6.70 229.02 7.56 229.40 8.31 230.17C9.05 230.93 9.44 231.97 9.49 233.30L3.73 233.30ZM15.09 236.65C15.56 236.39 16.03 236.11 16.51 235.80C17.40 237.35 18.33 238.60 19.34 239.51C19.77 239.91 20.21 240.12 20.61 240.12C21.21 240.12 21.68 239.77 21.68 239.44C21.68 239.25 21.65 239.08 21.59 238.91L21.25 238.91C21.02 238.91 20.73 238.73 20.38 238.40C19.46 237.52 18.56 236.39 17.67 235.02C18.54 234.38 19.32 233.72 20.00 233.04C20.68 232.37 21.02 231.85 21.02 231.48C21.02 231.14 20.76 230.91 20.00 230.63C19.41 231.48 18.66 232.33 17.76 233.15C16.88 233.96 15.97 234.62 15.09 235.16L15.09 231.00C15.09 230.75 14.93 230.63 14.62 230.63C14.28 230.63 13.93 230.69 13.58 230.79L13.58 239.62C13.58 239.88 13.74 240 14.07 240L15.09 240ZM30.98 232.39C30.44 231.28 29.14 230.53 27.49 230.53C26.21 230.53 25.15 230.95 24.32 231.78C23.49 232.59 23.07 233.70 23.07 235.09C23.07 236.65 23.57 237.90 24.56 238.82C25.55 239.74 26.73 240.21 28.06 240.21C28.81 240.21 29.45 240.09 29.99 239.83C30.53 239.57 30.81 239.31 30.81 239.05C30.81 238.80 30.74 238.58 30.60 238.39C29.89 238.75 29.12 238.92 28.31 238.92C27.30 238.92 26.43 238.58 25.69 237.90C24.96 237.21 24.60 236.25 24.60 235.06C24.60 234.09 24.86 233.30 25.39 232.71C25.93 232.13 26.61 231.83 27.42 231.83C28.64 231.83 29.42 232.37 29.76 233.43C30.20 233.37 30.53 233.29 30.79 233.13C30.98 233.03 31.07 232.89 31.07 232.70C31.07 232.61 31.03 232.51 30.98 232.39ZM40.87 231.14C40.87 230.88 40.71 230.74 40.38 230.74L33.20 230.74L33.20 239.62C33.20 239.88 33.35 240 33.68 240L34.71 240L34.71 232.02L39.36 232.02L39.36 239.62C39.36 239.88 39.51 240 39.84 240L40.87 240L40.87 231.14ZM48.10 238.91C46.35 238.91 45.01 237.85 44.82 235.99L50.02 235.99C50.67 235.99 51.00 235.84 51.22 235.28C51.39 234.90 51.48 234.45 51.48 233.93C51.48 232.94 51.13 232.14 50.46 231.50C49.78 230.86 48.90 230.53 47.80 230.53C46.54 230.53 45.46 230.98 44.58 231.87C43.69 232.75 43.26 233.91 43.26 235.37C43.26 236.77 43.69 237.94 44.56 238.86C45.43 239.76 46.52 240.21 47.86 240.21C48.64 240.21 49.28 240.09 49.82 239.83C50.35 239.57 50.61 239.31 50.61 239.05C50.61 238.77 50.54 238.54 50.41 238.37C49.73 238.73 48.97 238.91 48.10 238.91ZM47.73 231.83C49.14 231.83 50.01 232.68 50.01 234.00C50.01 234.26 49.95 234.50 49.87 234.71L44.82 234.71C44.98 232.96 46.16 231.83 47.73 231.83ZM55.30 239.29C55.97 239.90 56.84 240.21 57.90 240.21C59.18 240.21 60.27 239.72 61.16 238.73C62.04 237.75 62.49 236.51 62.49 235.00C62.49 233.63 62.11 232.56 61.37 231.74C60.62 230.93 59.69 230.53 58.54 230.53C57.14 230.53 55.92 231.22 55.30 232.32L55.30 231.00C55.30 230.75 55.14 230.63 54.83 230.63C54.50 230.63 54.15 230.69 53.79 230.77L53.79 243.31C53.79 243.57 53.94 243.69 54.27 243.69L55.30 243.69ZM58.21 231.81C59.89 231.81 60.97 233.03 60.97 235.04C60.97 236.15 60.66 237.07 60.03 237.81C59.41 238.54 58.63 238.91 57.67 238.91C56.75 238.91 55.96 238.60 55.30 237.97L55.30 234.22C55.90 232.65 57.03 231.81 58.21 231.81ZM68.72 232.02L71.93 232.02L71.93 231.24C71.93 230.91 71.81 230.74 71.55 230.74L64.09 230.74C64.02 231.00 63.99 231.28 63.99 231.57C63.99 231.87 64.11 232.02 64.35 232.02L67.21 232.02L67.21 239.62C67.21 239.88 67.37 240 67.70 240L68.72 240ZM86.87 231.14C86.87 230.88 86.71 230.74 86.38 230.74L79.20 230.74L79.20 239.62C79.20 239.88 79.35 240 79.68 240L80.71 240L80.71 232.02L85.36 232.02L85.36 239.62C85.36 239.88 85.51 240 85.84 240L86.87 240L86.87 231.14ZM90.56 231.85C89.69 232.71 89.26 233.89 89.26 235.37C89.26 236.84 89.69 238.02 90.56 238.91C91.44 239.77 92.52 240.21 93.79 240.21C95.05 240.21 96.13 239.77 96.99 238.91C97.88 238.02 98.31 236.84 98.31 235.37C98.31 233.89 97.88 232.71 96.99 231.85C96.13 230.96 95.05 230.53 93.79 230.53C92.52 230.53 91.44 230.96 90.56 231.85ZM93.87 238.91C93.02 238.91 92.29 238.60 91.69 237.95C91.10 237.31 90.80 236.41 90.80 235.26C90.80 234.14 91.08 233.29 91.64 232.71C92.19 232.13 92.88 231.83 93.70 231.83C94.55 231.83 95.28 232.16 95.87 232.80C96.47 233.44 96.77 234.33 96.77 235.47C96.77 236.60 96.49 237.45 95.94 238.04C95.38 238.61 94.69 238.91 93.87 238.91ZM115.38 231.14C115.35 230.88 115.17 230.74 114.88 230.74L113.84 230.74L111.01 235.72L108.29 230.93C108.18 230.74 108.03 230.63 107.80 230.63C107.45 230.63 107.07 230.75 106.66 231.02L105.55 239.62C105.49 239.88 105.65 240 106.00 240L107.02 240L107.92 232.82L110.32 237.07L111.34 237.07C111.58 237.07 111.76 236.98 111.84 236.83L114.10 232.82L114.95 239.64C115.00 239.91 115.09 240 115.43 240L116.51 240L115.38 231.14ZM123.31 238.91C121.56 238.91 120.22 237.85 120.03 235.99L125.23 235.99C125.87 235.99 126.20 235.84 126.43 235.28C126.60 234.90 126.69 234.45 126.69 233.93C126.69 232.94 126.34 232.14 125.67 231.50C124.99 230.86 124.11 230.53 123.01 230.53C121.75 230.53 120.67 230.98 119.79 231.87C118.90 232.75 118.47 233.91 118.47 235.37C118.47 236.77 118.90 237.94 119.77 238.86C120.64 239.76 121.73 240.21 123.06 240.21C123.85 240.21 124.49 240.09 125.02 239.83C125.56 239.57 125.82 239.31 125.82 239.05C125.82 238.77 125.75 238.54 125.61 238.37C124.94 238.73 124.17 238.91 123.31 238.91ZM122.94 231.83C124.35 231.83 125.22 232.68 125.22 234.00C125.22 234.26 125.16 234.50 125.08 234.71L120.03 234.71C120.19 232.96 121.36 231.83 122.94 231.83ZM130.16 230.74C130.04 233.74 129.59 236.41 128.84 238.73L127.97 238.73L127.97 241.65C127.97 241.91 128.13 242.05 128.46 242.05L129.48 242.05L129.48 240L135.43 240L135.43 241.65C135.43 241.91 135.59 242.05 135.92 242.05L136.94 242.05L136.94 239.12C136.94 238.86 136.78 238.73 136.46 238.73L135.87 238.73L135.87 231.14C135.87 230.88 135.71 230.74 135.38 230.74ZM130.37 238.73C130.97 236.69 131.36 234.45 131.51 232.02L134.36 232.02L134.36 238.73ZM146.88 231.08C146.52 230.77 146.15 230.62 145.80 230.62C145.58 230.62 145.42 230.70 145.30 230.86L140.48 237.71L140.48 230.98C140.48 230.74 140.32 230.62 140.01 230.62C139.68 230.62 139.33 230.67 138.97 230.75L138.97 239.64C139.33 239.95 139.70 240.10 140.05 240.10C140.27 240.10 140.43 240.02 140.55 239.86L145.37 233.01L145.37 239.62C145.37 239.88 145.53 240 145.86 240L146.88 240L146.88 231.08ZM157.11 240L157.11 241.67C157.11 241.93 157.27 242.05 157.60 242.05L158.62 242.05L158.62 239.12C158.62 238.86 158.47 238.73 158.14 238.73L157.55 238.73L157.55 231.12C157.55 230.86 157.39 230.74 157.06 230.74L156.04 230.74L156.04 238.73L152.31 238.73C151.55 238.73 151.30 238.42 151.30 237.24L151.30 231.00C151.30 230.75 151.15 230.63 150.83 230.63C150.50 230.63 150.16 230.69 149.79 230.77L149.79 237.45C149.79 239.27 150.54 240 152.01 240ZM168.56 231.08C168.20 230.77 167.83 230.62 167.49 230.62C167.26 230.62 167.10 230.70 166.98 230.86L162.16 237.71L162.16 230.98C162.16 230.74 162.00 230.62 161.69 230.62C161.36 230.62 161.02 230.67 160.65 230.75L160.65 239.64C161.02 239.95 161.38 240.10 161.73 240.10C161.95 240.10 162.11 240.02 162.23 239.86L167.05 233.01L167.05 239.62C167.05 239.88 167.21 240 167.54 240L168.56 240L168.56 231.08ZM179.18 231.14C179.18 230.88 179.02 230.74 178.69 230.74L177.67 230.74L177.67 234.59L173.02 234.59L173.02 231.00C173.02 230.75 172.86 230.63 172.55 230.63C172.20 230.63 171.86 230.69 171.51 230.79L171.51 239.62C171.51 239.88 171.67 240 172.00 240L173.02 240L173.02 235.85L177.67 235.85L177.67 239.62C177.67 239.88 177.82 240 178.15 240L179.18 240ZM186.41 238.91C184.66 238.91 183.32 237.85 183.13 235.99L188.33 235.99C188.98 235.99 189.31 235.84 189.53 235.28C189.71 234.90 189.79 234.45 189.79 233.93C189.79 232.94 189.44 232.14 188.77 231.50C188.09 230.86 187.21 230.53 186.11 230.53C184.85 230.53 183.77 230.98 182.89 231.87C182.00 232.75 181.57 233.91 181.57 235.37C181.57 236.77 182.00 237.94 182.87 238.86C183.74 239.76 184.83 240.21 186.17 240.21C186.95 240.21 187.59 240.09 188.13 239.83C188.66 239.57 188.92 239.31 188.92 239.05C188.92 238.77 188.86 238.54 188.72 238.37C188.04 238.73 187.28 238.91 186.41 238.91ZM186.05 231.83C187.45 231.83 188.32 232.68 188.32 234.00C188.32 234.26 188.27 234.50 188.18 234.71L183.13 234.71C183.29 232.96 184.47 231.83 186.05 231.83Z" fill="#000000" style="fill: rgb(0, 0, 0);"></path></g><g xmlns="http://www.w3.org/2000/svg" xmlns:name="symbol_mainfill" id="SvgjsG1017" rel="mainfill" name="symbol" transform="translate(-3.4631313996641393,-3.476652861019861) scale(0.7419298724508956)" fill="#4C1B1B"><path d="M17.5041275,35.7431297c-1.3343868,8.6112938,0.5216618,17.1337776,5.0932598,23.3820763  c3.514101,4.8010101,8.4125443,7.9051132,13.7960033,8.738472c5.6766281,0.8803635,11.2528-0.4285355,15.7024422-3.6848221  c1.2481613-0.9118309,2.3596039-1.9456711,3.3257027-3.0756493c-2.2215347,0.9782219-4.8139458,1.2666473-7.6252594,0.8312111  c-11.7167435-1.81633-19.6727276-13.4636116-17.7357349-25.9645157c0.9339237-6.0297165,4.3842182-11.4972458,9.7137356-15.3967743  c6.7678566-4.9519033,15.9534111-6.9700003,25.2009888-5.5369406c7.4736099,1.158433,17.6696701,5.9637556,25.5593109,15.2126837  c0,0-22.8349762-39.4207916-56.1144981-20.3555756C23.6889954,16.0402775,18.6534538,28.3230343,17.5041275,35.7431297z" fill="#4C1B1B" style="fill: #027287;"></path><path d="M82.5444794,65.2562332c1.6589203-8.5548134,0.1250305-17.1406708-4.2073517-23.5571098  c-3.330925-4.9307785-8.1085968-8.2168121-13.4566498-9.2532387c-5.639122-1.0937653-11.260994,0.0038795-15.8300591,3.0911674  c-1.2817879,0.8631134-2.4307365,1.8538399-3.4404335,2.9467392c2.2569427-0.8937225,4.8587837-1.083847,7.6516113-0.5423546  c11.639946,2.2565117,19.1514435,14.1956596,16.7440948,26.6155167c-1.1610718,5.9891891-4.815239,11.3235016-10.2879944,15.0186768  c-6.9493065,4.6923676-16.2047043,6.3638382-25.3924103,4.5819931C26.901741,82.7185287,16.8940315,77.531662,9.358448,67.9917221  c0,0,21.331213,40.2545929,55.3068428,22.4577484C75.6210403,84.7116241,81.115303,72.6280441,82.5444794,65.2562332z" fill="#4C1B1B" style="fill: #027287;"></path><path d="M35.7256317,82.8797684c8.6108131,1.3343353,17.1332397-0.5216599,23.3815918-5.0933075  c4.8010101-3.5136719,7.9046249-8.4129791,8.7393951-13.7964401c0.8790588-5.6761932-0.4294586-11.2527962-3.6857452-15.7020111  c-0.912262-1.2481079-1.9456673-2.3595467-3.0760269-3.326561c0.9786568,2.2224503,1.2674561,4.8148079,0.8312111,7.6257439  c-1.8159523,11.7171211-13.4632301,19.6730995-25.9645691,17.73563c-6.0292854-0.9338226-11.4972458-4.3845444-15.3959103-9.713253  c-4.9519043-6.7678032-6.9708633-15.9537888-5.5373726-25.2014236c1.1584339-7.4735546,5.9637547-17.6696663,15.2126827-25.5592575  c0,0-39.420845,22.8349762-20.3560066,56.1148262C16.0222969,76.6948471,28.3046761,81.7299576,35.7256317,82.8797684z" fill="#4C1B1B" style="fill: #2c555d;"></path><path d="M90.4318619,35.7181244c-5.7382202-10.9553223-17.8222275-16.4500122-25.193985-17.8787613  c-8.5544395-1.6589699-17.1406746-0.1245956-23.5566788,4.2073517c-4.9308357,3.3308735-8.2168694,8.1081715-9.253727,13.4567108  c-1.0937634,5.6395493,0.0038795,11.2609901,3.0911674,15.8300552c0.8631134,1.2821655,1.8538399,2.4311142,2.946743,3.4403763  c-0.8941536-2.2569389-1.0837975-4.8587799-0.5423584-7.6516075c2.2565117-11.6399498,14.1961441-19.1514435,26.6150856-16.7440414  c5.9896774,1.1614513,11.3239899,4.81567,15.019104,10.288372c4.6928558,6.9488754,6.3634644,16.2042694,4.582489,25.391983  c-1.4395828,7.423111-6.6264496,17.4308167-16.1668243,24.9668884  C67.9728775,91.0254517,108.2283325,69.6942368,90.4318619,35.7181244z" fill="#4C1B1B" style="fill: #2c555d;"></path></g></svg>