<svg width="7" height="9" viewBox="0 0 7 9" fill="none" xmlns="http://www.w3.org/2000/svg">
<path d="M3.08752 8.81842C0.483378 5.11578 0 4.73577 0 3.375C0 1.51103 1.54066 0 3.44118 0C5.34169 0 6.88235 1.51103 6.88235 3.375C6.88235 4.73577 6.39897 5.11578 3.79483 8.81842C3.62393 9.06054 3.2584 9.06052 3.08752 8.81842ZM3.44118 4.78125C4.23306 4.78125 4.875 4.15165 4.875 3.375C4.875 2.59835 4.23306 1.96875 3.44118 1.96875C2.64929 1.96875 2.00735 2.59835 2.00735 3.375C2.00735 4.15165 2.64929 4.78125 3.44118 4.78125Z" fill="#179CA7"/>
</svg>
