<?xml version="1.0" encoding="iso-8859-1"?>
<!-- Generator: Adobe Illustrator 19.0.0, SVG Export Plug-In . SVG Version: 6.00 Build 0)  -->
<svg version="1.1" id="Capa_1" xmlns="http://www.w3.org/2000/svg" xmlns:xlink="http://www.w3.org/1999/xlink" x="0px" y="0px"
	 viewBox="0 0 512 512" style="enable-background:new 0 0 512 512;" xml:space="preserve">
<rect x="91" y="150.9" style="fill:#7986E8;" width="331" height="271"/>
<rect x="256" y="150.9" style="fill:#6E77E5;" width="166" height="271"/>
<rect x="60" y="150.9" style="fill:#E5E5E5;" width="61" height="271"/>
<rect x="391" y="150.9" style="fill:#D9D9D9;" width="61" height="271"/>
<rect x="226" y="150.9" style="fill:#E5E5E5;" width="60" height="271"/>
<rect x="256" y="150.9" style="fill:#D9D9D9;" width="30" height="271"/>
<polygon style="fill:#C8C6CD;" points="226,391.9 30,391.9 30,451.9 136,481.9 211,451.9 248.5,421.9 "/>
<polygon style="fill:#AEADB4;" points="482,451.9 482,391.9 286,391.9 278.5,421.9 301,451.9 372.25,481.9 "/>
<polygon style="fill:#D9D9D9;" points="30,451.9 1,451.9 0,511.9 195,511.9 233.5,481.9 211,451.9 "/>
<polygon style="fill:#C8C6CD;" points="482,451.9 301,451.9 293.5,481.9 316,511.9 512,511.9 512,451.9 "/>
<polygon style="fill:#D9D9D9;" points="301,451.9 256,481.9 211,451.9 226,391.9 286,391.9 "/>
<polygon style="fill:#C8C6CD;" points="286,391.9 301,451.9 256,481.9 256,391.9 "/>
<polygon style="fill:#E5E5E5;" points="316,511.9 196,511.9 211,451.9 301,451.9 "/>
<g>
	<polygon style="fill:#D9D9D9;" points="316,511.9 256,511.9 256,451.9 301,451.9 	"/>
	<path style="fill:#D9D9D9;" d="M256,0.1L0,126.6v54.3h511l1-54.3L256,0.1z"/>
</g>
<polygon style="fill:#C8C6CD;" points="512,126.6 512,180.9 256,180.9 256,0.1 "/>
<g>
	<rect x="181" y="90.9" style="fill:#AEADB4;" width="30" height="30"/>
	<rect x="241" y="90.9" style="fill:#AEADB4;" width="30" height="30"/>
</g>
<g>
	<rect x="301" y="90.9" style="fill:#8B8892;" width="30" height="30"/>
	<rect x="256" y="90.9" style="fill:#8B8892;" width="15" height="30"/>
</g>
<g>
</g>
<g>
</g>
<g>
</g>
<g>
</g>
<g>
</g>
<g>
</g>
<g>
</g>
<g>
</g>
<g>
</g>
<g>
</g>
<g>
</g>
<g>
</g>
<g>
</g>
<g>
</g>
<g>
</g>
</svg>
