<svg xmlns="http://www.w3.org/2000/svg" viewBox="0 0 499.424 499.424"><path d="M499.424 289.712v-288h-336v104h16v-88h304v208h-16v16h16v32h-192v-32h160v-16h-160c0-66.168-53.832-120-120-120s-120 53.832-120 120v170.12c-11.416 6.48-20.472 16.784-25.096 29.488L0 497.712h342.84l-26.328-72.4c-4.616-12.696-13.672-23.008-25.096-29.48v-106.12h208.008zm-432-64c0-57.344 46.656-104 104-104s104 46.656 104 104v12.448c-4.728-2.752-10.144-4.448-16-4.448v-16h-8c-24.72 0-48.984-6.72-70.176-19.44l-9.824-5.888-9.824 5.888a136.377 136.377 0 0 1-70.176 19.44h-8v16c-5.856 0-11.272 1.696-16 4.448v-12.448zm128 24c-8.824 0-16 7.176-16 16h-16c0-8.824-7.176-16-16-16h-48v-16.208A152.458 152.458 0 0 0 169.84 212l1.584-.96 1.584.952a152.458 152.458 0 0 0 70.416 21.504v16.216h-48zm48 16v16c0 8.824-7.176 16-16 16h-16c-8.824 0-16-7.176-16-16v-16h48zm-96 0v16c0 8.824-7.176 16-16 16h-16c-8.824 0-16-7.176-16-16v-16h48zm-32 48h16c17.648 0 32-14.352 32-32h16c0 17.648 14.352 32 32 32h16c5.408 0 10.424-1.472 14.896-3.848-5.808 33.92-35.344 59.848-70.896 59.848s-65.088-25.928-70.896-59.848c4.472 2.376 9.488 3.848 14.896 3.848zm38.768 107.944l-27.24 22.704-17.096-45.608 22.752-3.792c2.816 11.816 10.872 21.536 21.584 26.696zm-6.768-35.944v-3.408c7.64 2.168 15.672 3.408 24 3.408s16.36-1.24 24-3.408v3.408c0 13.232-10.768 24-24 24s-24-10.768-24-24zm62.816 9.248l22.752 3.792-17.096 45.608-27.24-22.704c10.712-5.168 18.76-14.888 21.584-26.696zm1.184-16.024V376c28.448-14.6 48-44.168 48-78.288 5.856 0 11.272-1.696 16-4.448v96.504c-.784-.168-1.536-.424-2.328-.552l-61.672-10.28zm48-97.224v-32c8.824 0 16 7.176 16 16s-7.176 16-16 16zm-176-32v32c-8.824 0-16-7.176-16-16s7.176-16 16-16zm-16 43.552c4.728 2.752 10.144 4.448 16 4.448 0 34.112 19.552 63.688 48 78.288v2.936l-61.68 10.28c-.792.128-1.536.384-2.32.544v-96.496zm234.064 137.52L320 481.712h-38.336l-6.488-25.936-15.512 3.872 5.52 22.064H77.664l5.512-22.064-15.512-3.872-6.48 25.936H22.848l18.512-50.928c4.928-13.528 16.816-23.416 31.016-25.792l21.392-3.568 26.12 69.64 51.536-42.936 51.528 42.944 26.12-69.64 21.384 3.56c14.216 2.376 26.104 12.256 31.032 25.792z"/><path d="M324.872 33.712l-22.784 113.896-21.392-49.896h-29.272v16h18.728l24 56h19.824l24-120h65.448v-16zM409.08 127.368l-11.312-11.312-18.344 18.344-18.344-18.344-11.312 11.312 18.344 18.344-18.344 18.344 11.312 11.312 18.344-18.344 18.344 18.344 11.312-11.312-18.344-18.344zM457.816 108.912c6.016-4.496 9.608-11.68 9.608-19.2 0-13.232-10.768-24-24-24s-24 10.768-24 24h16c0-4.416 3.584-8 8-8s8 3.584 8 8a8.044 8.044 0 0 1-3.192 6.4l-28.808 21.6v20h48v-16H440.76l17.056-12.8z"/></svg>