<svg xmlns="http://www.w3.org/2000/svg" viewBox="0 0 290 68" style="width:100%;height:100%"><path d="M99.52 10.785l-4.31 12.89-4.27-12.89h-8.67c-.18 0-.27.21-.27.45 0 .26.09.44.27.44h2.2v20.19h-2.2c-.18 0-.27.21-.27.44 0 .27.09.45.27.45h5.43c.18 0 .27-.21.27-.45 0-.23-.09-.44-.27-.44h-2.34v-19l6.62 19.86c0 .09.41.15.56.15.06 0 .53-.06.53-.15l6.62-19.74v18.88h-2.22c-.18 0-.27.21-.27.44 0 .27.09.45.27.45h10.39c.18 0 .27-.21.27-.45 0-.23-.09-.44-.27-.44h-2.23v-20.19h2.23c.18 0 .27-.2.27-.44s-.09-.45-.27-.45zm20.75 22.27c3.41 0 6.38-2.11 6.59-4.87 0-.15-.21-.24-.39-.24-.18 0-.36.09-.36.24-.35 2.7-3.08 4.12-5.72 4.12-2.35 0-3.42-1.84-3.42-6.97h10.07c.14 0 .2-.21.2-.21-.06-5.67-4.03-8.43-7.92-8.43-3.95 0-7.93 2.82-7.93 8.16 0 4.87 4.36 8.2 8.88 8.2zm-3.33-8.46v-3.6c0-2.4 1.31-3.62 2.61-3.62 1.31 0 2.62 1.22 2.62 3.62v3.6zm24.82 5.81c.74 1.99 2.31 2.65 3.86 2.65 1.99 0 3.95-1.25 3.95-3.51 0-.17-.18-.26-.36-.26s-.39.09-.39.26c0 1.19-.59 1.79-1.15 1.79-.6 0-1.16-.6-1.16-1.76V9.805h1.69c.15 0 .24-.18.24-.35 0-.18-.09-.39-.24-.39h-6.71c-.26 0-.32.06-.32.27v6.8l.29 2.31c-1.6-1.42-3-1.72-4.36-1.72-4.6 0-6.89 3.98-6.89 8.1 0 4.78 3.18 8.23 6.65 8.23 1.66 0 3.42-.77 4.9-2.65zm-5.94-2.82v-6.08c0-2.41 1.43-3.62 2.82-3.62 1.43 0 2.82 1.21 2.82 3.62v6.05c0 2.68-1.42 4.04-2.85 4.04-1.39 0-2.79-1.3-2.79-4.01zm26.07 5.17c.06.12.44.15.56.15.06 0 .51-.06.54-.15l8.19-21.08h2.37c.18 0 .27-.2.27-.44s-.09-.45-.27-.45h-5.58c-.18 0-.26.21-.26.45 0 .24.08.44.26.44h2.23l-5.14 13.12-5.61-13.12h2.38c.18 0 .26-.2.26-.44s-.08-.45-.26-.45h-11.25c-.18 0-.27.21-.27.45 0 .24.09.44.27.44h2.34zm15.17-21.02c0 1.43 1.21 2.64 2.64 2.64 1.48 0 2.67-1.21 2.67-2.64 0-1.48-1.19-2.67-2.67-2.67-1.43 0-2.64 1.19-2.64 2.67zm5.31 5.61c0-.23-.15-.35-.39-.35h-6.65c-.14 0-.23.2-.23.38s.09.36.23.36h1.7v11.75c0 2.38 2.1 3.57 4.21 3.57s4.22-1.19 4.22-3.57c0-.17-.18-.26-.36-.26s-.38.09-.38.26c0 1.19-.6 1.79-1.19 1.79-.6 0-1.16-.6-1.16-1.79zm18.29 2.59c0-2.02-3.03-3.24-6.18-3.24-4.06 0-6.74 1.9-6.74 4.72 0 4.84 8.52 6.23 8.52 8.91 0 1.66-1.45 2.04-3 2.04-.8 0-1.6-.08-2.22-.17.89-.54 1.25-1.4 1.25-2.26 0-1.69-1.28-2.55-2.53-2.55-1.27 0-2.52.86-2.52 2.52 0 2.29 3 3.15 6.17 3.15 3.71 0 7.69-1.52 7.69-4.96 0-5.02-8.84-4.63-8.84-8.73 0-1.57 1-1.99 2.34-1.99.74 0 1.57.12 2.38.27-.92.5-1.31 1.34-1.31 2.29 0 1.69 1.25 2.55 2.49 2.55 1.37 0 2.5-.95 2.5-2.55zm20.03 4.95c0-4.75-3.2-8.19-8.46-8.19-5.25 0-8.46 3.44-8.46 8.19s3.21 8.17 8.46 8.17c5.26 0 8.46-3.42 8.46-8.17zm-5.64 1.43c0 3.89-.38 6.08-2.82 6.08-2.43 0-2.82-2.19-2.82-6.08v-2.88c0-3.89.39-6.09 2.82-6.09 2.44 0 2.82 2.2 2.82 6.09zm15.53-7.87h-.3v-1.22c0-.14-.06-.23-.23-.23h-6.51c-.14 0-.23.2-.23.38s.09.36.23.36h1.7v15.02h5.34v-13.15c.83-1.34 2.49-2.17 3.47-2.17.66 0 1.16.21 1.58.63-1.75.05-2.53 1.18-2.53 2.34 0 1.31.98 2.64 2.68 2.64 1.81 0 2.67-1.24 2.67-2.64 0-1.75-1.37-3.71-3.95-3.71-1.43 0-2.94.62-3.92 1.75zm17.1 11.61c0-1.72-1.31-3.06-2.88-3.06-1.54 0-2.85 1.34-2.85 3.06 0 1.6 1.34 3 2.85 3s2.88-1.4 2.88-3zm11.49-11.61h-.3v-1.22c0-.14-.06-.23-.24-.23h-6.5c-.15 0-.23.2-.23.38s.08.36.23.36h1.69v15.02h5.35v-13.15c.83-1.34 2.49-2.17 3.47-2.17.65 0 1.16.21 1.57.63-1.75.05-2.52 1.18-2.52 2.34 0 1.31.98 2.64 2.67 2.64 1.81 0 2.68-1.24 2.68-2.64 0-1.75-1.37-3.71-3.95-3.71-1.43 0-2.94.62-3.92 1.75zm22.38 11.99c.6 1.76 2.26 2.62 3.95 2.62 2.05 0 4.13-1.31 4.13-3.54 0-.17-.18-.26-.36-.26s-.39.09-.39.26c0 1.19-.62 1.76-1.24 1.76-.63 0-1.22-.57-1.22-1.76v-12.17c0-.23-.15-.35-.42-.35h-4.92v11.43c0 2.16-1.34 3.26-2.68 3.26-1.33 0-2.67-1.1-2.67-3.26v-11.08c0-.26-.15-.35-.35-.35h-6.36c-.14 0-.23.2-.23.38s.09.36.23.36h1.37v9.85c0 3.6 2.97 5.47 5.97 5.47 2.04 0 4-.8 5.19-2.62z" fill="#027287" xmlns:name="main_text"/><path d="M94.18 48.705c-.07.26-.1.56-.1.91 0 .29.12.43.34.43h5.43c-.22 1.32-.8 2.36-1.72 3.11-.92.74-2.03 1.11-3.33 1.11-1.07 0-2.01-.23-2.81-.66-.14.22-.2.46-.2.72 0 .28.33.56.98.85.66.3 1.43.44 2.28.44 1.87 0 3.41-.61 4.65-1.81 1.23-1.21 1.83-2.82 1.83-4.84 0-1.82-.53-3.26-1.59-4.31-1.06-1.06-2.36-1.6-3.9-1.6-2.14 0-3.82 1.01-4.57 2.55-.05.12-.08.21-.08.29 0 .26.15.47.46.59.25.13.54.2.89.23.57-1.46 1.79-2.29 3.38-2.29 1.03 0 1.89.38 2.64 1.15.74.76 1.13 1.8 1.18 3.13h-5.76zm11.36 3.35c.47-.26.94-.54 1.42-.85.89 1.55 1.82 2.8 2.83 3.71.43.4.87.61 1.27.61.6 0 1.07-.35 1.07-.68 0-.19-.03-.36-.09-.53h-.34c-.23 0-.52-.18-.87-.51-.92-.88-1.82-2.01-2.71-3.38.87-.64 1.65-1.3 2.33-1.98.68-.67 1.02-1.19 1.02-1.56 0-.34-.26-.57-1.02-.85-.59.85-1.34 1.7-2.24 2.52-.88.81-1.79 1.47-2.67 2.01v-4.16c0-.25-.16-.37-.47-.37-.34 0-.69.06-1.04.16v8.83c0 .26.16.38.49.38h1.02zm15.89-4.26c-.54-1.11-1.84-1.86-3.49-1.86-1.28 0-2.34.42-3.17 1.25-.83.81-1.25 1.92-1.25 3.31 0 1.56.5 2.81 1.49 3.73.99.92 2.17 1.39 3.5 1.39.75 0 1.39-.12 1.93-.38s.82-.52.82-.78c0-.25-.07-.47-.21-.66-.71.36-1.48.53-2.29.53-1.01 0-1.88-.34-2.62-1.02-.73-.69-1.09-1.65-1.09-2.84 0-.97.26-1.76.79-2.35.54-.58 1.22-.88 2.03-.88 1.22 0 2 .54 2.34 1.6.44-.06.77-.14 1.03-.3.19-.1.28-.24.28-.43 0-.09-.04-.19-.09-.31zm9.89-1.25c0-.26-.16-.4-.49-.4h-7.18v8.88c0 .26.15.38.48.38h1.03v-7.98h4.65v7.6c0 .26.15.38.48.38h1.03v-8.86zm7.23 7.77c-1.75 0-3.09-1.06-3.28-2.92h5.2c.65 0 .98-.15 1.2-.71.17-.38.26-.83.26-1.35 0-.99-.35-1.79-1.02-2.43-.68-.64-1.56-.97-2.66-.97-1.26 0-2.34.45-3.22 1.34-.89.88-1.32 2.04-1.32 3.5 0 1.4.43 2.57 1.3 3.49.87.9 1.96 1.35 3.3 1.35.78 0 1.42-.12 1.96-.38.53-.26.79-.52.79-.78 0-.28-.07-.51-.2-.68-.68.36-1.44.54-2.31.54zm-.37-7.08c1.41 0 2.28.85 2.28 2.17 0 .26-.06.5-.14.71h-5.05c.16-1.75 1.34-2.88 2.91-2.88zm7.57 7.46c.67.61 1.54.92 2.6.92 1.28 0 2.37-.49 3.26-1.48.88-.98 1.33-2.22 1.33-3.73 0-1.37-.38-2.44-1.12-3.26-.75-.81-1.68-1.21-2.83-1.21-1.4 0-2.62.69-3.24 1.79v-1.32c0-.25-.16-.37-.47-.37-.33 0-.68.06-1.04.14v12.54c0 .26.15.38.48.38h1.03zm2.91-7.48c1.68 0 2.76 1.22 2.76 3.23 0 1.11-.31 2.03-.94 2.77-.62.73-1.4 1.1-2.36 1.1-.92 0-1.71-.31-2.37-.94v-3.75c.6-1.57 1.73-2.41 2.91-2.41zm10.51.21h3.21v-.78c0-.33-.12-.5-.38-.5h-7.46c-.07.26-.1.54-.1.83 0 .3.12.45.36.45h2.86v7.6c0 .26.16.38.49.38h1.02zm18.15-.88c0-.26-.16-.4-.49-.4h-7.18v8.88c0 .26.15.38.48.38h1.03v-7.98h4.65v7.6c0 .26.15.38.48.38h1.03v-8.86zm3.69.71c-.87.86-1.3 2.04-1.3 3.52 0 1.47.43 2.65 1.3 3.54.88.86 1.96 1.3 3.23 1.3 1.26 0 2.34-.44 3.2-1.3.89-.89 1.32-2.07 1.32-3.54 0-1.48-.43-2.66-1.32-3.52-.86-.89-1.94-1.32-3.2-1.32-1.27 0-2.35.43-3.23 1.32zm3.31 7.06c-.85 0-1.58-.31-2.18-.96-.59-.64-.89-1.54-.89-2.69 0-1.12.28-1.97.84-2.55.55-.58 1.24-.88 2.06-.88.85 0 1.58.33 2.17.97.6.64.9 1.53.9 2.67 0 1.13-.28 1.98-.83 2.57-.56.57-1.25.87-2.07.87zm21.51-7.77c-.03-.26-.21-.4-.5-.4h-1.04l-2.83 4.98-2.72-4.79c-.11-.19-.26-.3-.49-.3-.35 0-.73.12-1.14.39l-1.11 8.6c-.06.26.1.38.45.38h1.02l.9-7.18 2.4 4.25h1.02c.24 0 .42-.09.5-.24l2.26-4.01.85 6.82c.05.27.14.36.48.36h1.08l-1.13-8.86zm7.93 7.77c-1.75 0-3.09-1.06-3.28-2.92h5.2c.64 0 .97-.15 1.2-.71.17-.38.26-.83.26-1.35 0-.99-.35-1.79-1.02-2.43-.68-.64-1.56-.97-2.66-.97-1.26 0-2.34.45-3.22 1.34-.89.88-1.32 2.04-1.32 3.5 0 1.4.43 2.57 1.3 3.49.87.9 1.96 1.35 3.29 1.35.79 0 1.43-.12 1.96-.38.54-.26.8-.52.8-.78 0-.28-.07-.51-.21-.68-.67.36-1.44.54-2.3.54zm-.37-7.08c1.41 0 2.28.85 2.28 2.17 0 .26-.06.5-.14.71h-5.05c.16-1.75 1.33-2.88 2.91-2.88zm7.22-1.09c-.12 3-.57 5.67-1.32 7.99h-.87v2.92c0 .26.16.4.49.4h1.02v-2.05h5.95v1.65c0 .26.16.4.49.4h1.02v-2.93c0-.26-.16-.39-.48-.39h-.59v-7.59c0-.26-.16-.4-.49-.4zm.21 7.99c.6-2.04.99-4.28 1.14-6.71h2.85v6.71zm16.51-7.65c-.36-.31-.73-.46-1.08-.46-.22 0-.38.08-.5.24l-4.82 6.85v-6.73c0-.24-.16-.36-.47-.36-.33 0-.68.05-1.04.13v8.89c.36.31.73.46 1.08.46.22 0 .38-.08.5-.24l4.82-6.85v6.61c0 .26.16.38.49.38h1.02v-8.92zm10.23 8.92v1.67c0 .26.16.38.49.38h1.02v-2.93c0-.26-.15-.39-.48-.39H248v-7.61c0-.26-.16-.38-.49-.38h-1.02v7.99h-3.73c-.76 0-1.01-.31-1.01-1.49v-6.24c0-.25-.15-.37-.47-.37-.33 0-.67.06-1.04.14v6.68c0 1.82.75 2.55 2.22 2.55zm11.45-8.92c-.36-.31-.73-.46-1.07-.46-.23 0-.39.08-.51.24l-4.82 6.85v-6.73c0-.24-.16-.36-.47-.36-.33 0-.67.05-1.04.13v8.89c.37.31.73.46 1.08.46.22 0 .38-.08.5-.24l4.82-6.85v6.61c0 .26.16.38.49.38h1.02v-8.92zm10.62.06c0-.26-.16-.4-.49-.4h-1.02v3.85h-4.65v-3.59c0-.25-.16-.37-.47-.37-.35 0-.69.06-1.04.16v8.83c0 .26.16.38.49.38h1.02v-4.15h4.65v3.77c0 .26.15.38.48.38h1.03zm7.23 7.77c-1.75 0-3.09-1.06-3.28-2.92h5.2c.65 0 .98-.15 1.2-.71.18-.38.26-.83.26-1.35 0-.99-.35-1.79-1.02-2.43-.68-.64-1.56-.97-2.66-.97-1.26 0-2.34.45-3.22 1.34-.89.88-1.32 2.04-1.32 3.5 0 1.4.43 2.57 1.3 3.49.87.9 1.96 1.35 3.3 1.35.78 0 1.42-.12 1.96-.38.53-.26.79-.52.79-.78 0-.28-.06-.51-.2-.68-.68.36-1.44.54-2.31.54zm-.36-7.08c1.4 0 2.27.85 2.27 2.17 0 .26-.05.5-.14.71h-5.05c.16-1.75 1.34-2.88 2.92-2.88z" xmlns:name="slogan_text"/><g xmlns="http://www.w3.org/2000/svg" xmlns:name="symbol_mainfill" fill="#4C1B1B"><path d="M9.524 23.042c-.99 6.39.387 12.712 3.779 17.348 2.607 3.562 6.241 5.865 10.235 6.483 4.212.654 8.349-.318 11.65-2.733a14.478 14.478 0 0 0 2.468-2.282c-1.648.725-3.572.94-5.658.616-8.693-1.347-14.595-9.989-13.158-19.264.693-4.473 3.252-8.53 7.207-11.423 5.02-3.674 11.836-5.171 18.697-4.108 5.545.86 13.11 4.425 18.963 11.287 0 0-16.942-29.248-41.633-15.103-7.962 4.561-11.698 13.674-12.55 19.18z" fill="#027287"/><path d="M57.78 44.939c1.23-6.347.092-12.717-3.122-17.478-2.472-3.658-6.016-6.096-9.984-6.865-4.184-.812-8.355.003-11.745 2.293a14.484 14.484 0 0 0-2.553 2.187c1.675-.663 3.605-.805 5.677-.403 8.636 1.674 14.21 10.532 12.423 19.747-.861 4.444-3.572 8.401-7.633 11.143-5.156 3.481-12.023 4.721-18.84 3.4-5.507-1.068-12.932-4.917-18.523-11.995 0 0 15.826 29.867 41.034 16.663 8.128-4.258 12.205-13.223 13.265-18.692z" fill="#027287"/><path d="M23.043 58.014c6.388.99 12.711-.387 17.347-3.779 3.562-2.606 5.865-6.241 6.484-10.236.653-4.21-.318-8.348-2.734-11.65a14.512 14.512 0 0 0-2.282-2.467c.726 1.648.94 3.572.616 5.657-1.347 8.694-9.989 14.596-19.264 13.159-4.473-.693-8.53-3.253-11.422-7.207-3.674-5.02-5.172-11.836-4.109-18.697.86-5.545 4.425-13.11 11.287-18.963 0 0-29.247 16.941-15.103 41.633 4.561 7.962 13.674 11.697 19.18 12.55z" fill="#2c555d"/><path d="M63.631 23.024c-4.257-8.128-13.223-12.205-18.692-13.265-6.347-1.23-12.717-.093-17.478 3.121-3.658 2.472-6.096 6.016-6.865 9.984-.812 4.185.003 8.355 2.293 11.745.64.951 1.376 1.804 2.186 2.553-.663-1.675-.804-3.605-.402-5.677 1.674-8.636 10.533-14.21 19.747-12.423 4.444.862 8.401 3.573 11.143 7.633 3.482 5.156 4.721 12.023 3.4 18.84-1.068 5.507-4.917 12.932-11.995 18.523 0 0 29.867-15.826 16.663-41.034z" fill="#2c555d"/></g></svg>