<svg width="16" height="17" fill="none" xmlns="http://www.w3.org/2000/svg"><path d="M8 0C3.58 0 0 3.651 0 8.158s3.58 8.158 8 8.158 8-3.651 8-8.158S12.42 0 8 0zm6.232 5h-2.661c-.29-1.46-.777-2.704-1.394-3.589A7.041 7.041 0 0 1 14.232 5zM10.84 8.158c0 .753-.052 1.454-.139 2.105H5.3a15.85 15.85 0 0 1-.139-2.105c0-.753.052-1.454.139-2.105h5.4c.087.65.139 1.352.139 2.105zM8 1.053c.868 0 1.98 1.45 2.52 3.947H5.48C6.02 2.503 7.133 1.053 8 1.053zm-2.177.358C5.21 2.293 4.719 3.536 4.429 5H1.768a7.041 7.041 0 0 1 4.055-3.589zm-4.79 6.747c0-.734.109-1.44.312-2.105h2.92a16.403 16.403 0 0 0 0 4.21h-2.92a7.19 7.19 0 0 1-.313-2.105zm.735 3.158h2.661c.29 1.46.777 2.704 1.394 3.589a7.041 7.041 0 0 1-4.055-3.59zM8 15.263c-.868 0-1.98-1.45-2.52-3.947h5.04c-.54 2.496-1.652 3.947-2.52 3.947zm2.177-.358c.613-.882 1.104-2.125 1.394-3.59h2.661a7.041 7.041 0 0 1-4.055 3.59zm1.559-4.642a16.402 16.402 0 0 0 0-4.21h2.919a7.19 7.19 0 0 1 .313 2.105 7.2 7.2 0 0 1-.313 2.105h-2.92z" fill="#009DA9"/></svg>