<svg width="16" height="16" fill="none" xmlns="http://www.w3.org/2000/svg"><path d="M7.75 0A7.749 7.749 0 0 0 0 7.75a7.749 7.749 0 0 0 7.75 7.75 7.749 7.749 0 0 0 7.75-7.75A7.749 7.749 0 0 0 7.75 0zm0 14A6.248 6.248 0 0 1 1.5 7.75 6.248 6.248 0 0 1 7.75 1.5 6.248 6.248 0 0 1 14 7.75 6.248 6.248 0 0 1 7.75 14zm1.931-3.262L7.028 8.809a.377.377 0 0 1-.153-.303V3.375c0-.206.169-.375.375-.375h1c.206 0 .375.169.375.375v4.428l2.088 1.519a.375.375 0 0 1 .08.525l-.587.81a.378.378 0 0 1-.525.08z" fill="#009DA9"/></svg>