<svg width="14" height="14" fill="none" xmlns="http://www.w3.org/2000/svg"><g clip-path="url(#clip0)"><path d="M13.904 12.822l-3.32-3.32a.325.325 0 0 0-.232-.096h-.36A5.687 5.687 0 0 0 5.687 0 5.687 5.687 0 0 0 0 5.688 5.687 5.687 0 0 0 9.406 9.99v.361c0 .088.036.17.096.233l3.32 3.32a.328.328 0 0 0 .464 0l.618-.619a.328.328 0 0 0 0-.464zm-8.216-2.76a4.374 4.374 0 0 1-4.375-4.374 4.374 4.374 0 0 1 4.375-4.375 4.374 4.374 0 0 1 4.375 4.375 4.374 4.374 0 0 1-4.376 4.375z" fill="#A0A0A0"/></g><defs><clipPath id="clip0"><path fill="#fff" d="M0 0h14v14H0z"/></clipPath></defs></svg>