<svg width="14" height="8" fill="none" xmlns="http://www.w3.org/2000/svg"><path d="M13.838 3.47C12.468 1.39 9.912 0 7 0 4.087 0 1.531 1.391.162 3.47A.961.961 0 0 0 0 4c0 .186.056.37.162.53C1.532 6.61 4.088 8 7 8c2.913 0 5.469-1.391 6.838-3.47A.962.962 0 0 0 14 4a.962.962 0 0 0-.162-.53zm-3.727-.079c0 1.49-1.393 2.696-3.111 2.696-1.718 0-3.111-1.207-3.111-2.696C3.889 1.903 5.282.696 7 .696c1.718 0 3.111 1.207 3.111 2.695zm3.057.786C11.906 6.093 9.573 7.304 7 7.304c-2.583 0-4.911-1.22-6.168-3.127a.32.32 0 0 1 0-.354c.706-1.072 1.782-1.966 3.103-2.519-.512.57-.824 1.295-.824 2.087 0 1.866 1.731 3.392 3.889 3.392 2.158 0 3.889-1.526 3.889-3.392 0-.791-.312-1.517-.823-2.087 1.306.548 2.388 1.435 3.102 2.52a.32.32 0 0 1 0 .353zm-7.724-.873c0-.237.067-.46.183-.655 0 .317.287.574.641.574.354 0 .64-.257.64-.573 0-.317-.286-.573-.64-.573.218-.105.467-.164.732-.164.86 0 1.556.623 1.556 1.391 0 .769-.697 1.392-1.556 1.392-.86 0-1.556-.623-1.556-1.392z" fill="#666"/></svg>