<svg xmlns="http://www.w3.org/2000/svg" viewBox="0 0 512 512"><path fill="#7986e8" d="M91 150.9h331v271H91z"/><path fill="#6e77e5" d="M256 150.9h166v271H256z"/><path fill="#e5e5e5" d="M60 150.9h61v271H60z"/><path fill="#d9d9d9" d="M391 150.9h61v271h-61z"/><path fill="#e5e5e5" d="M226 150.9h60v271h-60z"/><path fill="#d9d9d9" d="M256 150.9h30v271h-30z"/><path fill="#c8c6cd" d="M226 391.9H30v60l106 30 75-30 37.5-30z"/><path fill="#aeadb4" d="M482 451.9v-60H286l-7.5 30 22.5 30 71.25 30z"/><path fill="#d9d9d9" d="M30 451.9H1l-1 60h195l38.5-30-22.5-30z"/><path fill="#c8c6cd" d="M482 451.9H301l-7.5 30 22.5 30h196v-60z"/><path fill="#d9d9d9" d="M301 451.9l-45 30-45-30 15-60h60z"/><path fill="#c8c6cd" d="M286 391.9l15 60-45 30v-90z"/><path fill="#e5e5e5" d="M316 511.9H196l15-60h90z"/><path d="M316 511.9h-60v-60h45zM256 .1L0 126.6v54.3h511l1-54.3L256 .1z" fill="#d9d9d9"/><path fill="#c8c6cd" d="M512 126.6v54.3H256V.1z"/><path d="M181 90.9h30v30h-30zm60 0h30v30h-30z" fill="#aeadb4"/><path d="M301 90.9h30v30h-30zm-45 0h15v30h-15z" fill="#8b8892"/></svg>