<svg width="14" height="8" viewBox="0 0 14 8" fill="none" xmlns="http://www.w3.org/2000/svg">
<path d="M13.8385 3.47024C12.468 1.39017 9.91201 0 7.00001 0C4.08675 0 1.53136 1.39117 0.161546 3.47022C0.0557803 3.63074 0 3.81367 0 3.99999C0 4.18631 0.0557803 4.36924 0.161546 4.52976C1.53204 6.60985 4.08801 8 7.00001 8C9.91327 8 12.4687 6.60883 13.8385 4.52976C13.9442 4.36924 14 4.18632 14 4C14 3.81368 13.9442 3.63076 13.8385 3.47024ZM10.1111 3.3913C10.1111 4.88007 8.71822 6.08696 7.00001 6.08696C5.2818 6.08696 3.8889 4.88007 3.8889 3.3913C3.8889 1.90254 5.2818 0.695652 7.00001 0.695652C8.71822 0.695652 10.1111 1.90254 10.1111 3.3913ZM13.1684 4.17659C11.9058 6.09298 9.57312 7.30435 7.00001 7.30435C4.41655 7.30435 2.08881 6.08467 0.83165 4.17661C0.796407 4.12309 0.777821 4.06212 0.777821 4.00001C0.777821 3.9379 0.796407 3.87693 0.83165 3.82341C1.53826 2.75096 2.61424 1.85743 3.9345 1.30413C3.42333 1.87372 3.11112 2.5993 3.11112 3.3913C3.11112 5.25691 4.84219 6.78261 7.00001 6.78261C9.15761 6.78261 10.8889 5.257 10.8889 3.3913C10.8889 2.59976 10.577 1.87404 10.0655 1.30413C11.3722 1.85172 12.4542 2.73937 13.1684 3.82341C13.2036 3.87693 13.2222 3.9379 13.2222 4C13.2222 4.06211 13.2036 4.12308 13.1684 4.17659ZM5.44445 3.30435C5.44445 3.06746 5.51074 2.84443 5.62748 2.6492V2.64963C5.62748 2.96602 5.91426 3.22252 6.268 3.22252C6.62174 3.22252 6.90852 2.96602 6.90852 2.64963C6.90852 2.33324 6.62174 2.07674 6.268 2.07674H6.26751C6.4858 1.97233 6.73515 1.91304 7.00001 1.91304C7.85911 1.91304 8.55556 2.53596 8.55556 3.30435C8.55556 4.07274 7.85911 4.69565 7.00001 4.69565C6.14091 4.69565 5.44445 4.07274 5.44445 3.30435Z" fill="#666666"/>
</svg>
