<svg width="16" height="17" viewBox="0 0 16 17" fill="none" xmlns="http://www.w3.org/2000/svg">
<path d="M8 0C3.58065 0 0 3.65132 0 8.1579C0 12.6645 3.58065 16.3158 8 16.3158C12.4194 16.3158 16 12.6645 16 8.1579C16 3.65132 12.4194 0 8 0ZM14.2323 5H11.571C11.2806 3.53947 10.7935 2.29605 10.1774 1.41118C11.9516 2.00987 13.4097 3.31579 14.2323 5ZM10.8387 8.1579C10.8387 8.91118 10.7871 9.61184 10.7 10.2632H5.3C5.2129 9.61184 5.16129 8.91118 5.16129 8.1579C5.16129 7.40461 5.2129 6.70395 5.3 6.05263H10.7C10.7871 6.70395 10.8387 7.40461 10.8387 8.1579ZM8 1.05263C8.86774 1.05263 9.98065 2.50329 10.5194 5H5.48064C6.01935 2.50329 7.13226 1.05263 8 1.05263ZM5.82258 1.41118C5.20968 2.29276 4.71935 3.53618 4.42903 5H1.76774C2.59032 3.31579 4.04839 2.00987 5.82258 1.41118ZM1.03226 8.1579C1.03226 7.42434 1.14194 6.71711 1.34516 6.05263H4.26452C4.18064 6.72697 4.12903 7.42763 4.12903 8.1579C4.12903 8.88816 4.17742 9.58882 4.26452 10.2632H1.34516C1.14194 9.59868 1.03226 8.89145 1.03226 8.1579ZM1.76774 11.3158H4.42903C4.71935 12.7763 5.20645 14.0197 5.82258 14.9046C4.04839 14.3059 2.59032 13 1.76774 11.3158ZM8 15.2632C7.13226 15.2632 6.01935 13.8125 5.48064 11.3158H10.5194C9.98065 13.8125 8.86774 15.2632 8 15.2632ZM10.1774 14.9046C10.7903 14.023 11.2806 12.7796 11.571 11.3158H14.2323C13.4097 13 11.9516 14.3059 10.1774 14.9046ZM11.7355 10.2632C11.8194 9.58882 11.871 8.88816 11.871 8.1579C11.871 7.42763 11.8226 6.72697 11.7355 6.05263H14.6548C14.8581 6.71711 14.9677 7.42434 14.9677 8.1579C14.9677 8.89145 14.8581 9.59868 14.6548 10.2632H11.7355Z" fill="#009DA9"/>
</svg>
