<svg width="12" height="16" viewBox="0 0 12 16" fill="none" xmlns="http://www.w3.org/2000/svg">
<path d="M5.28893 15.6772C0.828026 9.09472 0 8.41915 0 6C0 2.68628 2.63915 0 5.89474 0C9.15032 0 11.7895 2.68628 11.7895 6C11.7895 8.41915 10.9614 9.09472 6.50054 15.6772C6.2078 16.1076 5.58164 16.1076 5.28893 15.6772ZM5.89474 8.5C7.25123 8.5 8.35087 7.38072 8.35087 6C8.35087 4.61928 7.25123 3.5 5.89474 3.5C4.53824 3.5 3.4386 4.61928 3.4386 6C3.4386 7.38072 4.53824 8.5 5.89474 8.5Z" fill="#009DA9"/>
</svg>
