<svg width="16" height="16" viewBox="0 0 16 16" fill="none" xmlns="http://www.w3.org/2000/svg">
<g clip-path="url(#clip0)">
<path d="M15.4191 0.769027L12.1691 0.0190269C11.816 -0.0622231 11.4535 0.122152 11.3097 0.453402L9.8097 3.9534C9.67845 4.25965 9.76595 4.61903 10.0253 4.8284L11.9191 6.3784C10.7941 8.77528 8.82845 10.769 6.38158 11.9159L4.83158 10.0222C4.61908 9.76278 4.26283 9.67528 3.95658 9.80653L0.456576 11.3065C0.122201 11.4534 -0.0621745 11.8159 0.0190755 12.169L0.769076 15.419C0.847201 15.7565 1.1472 16.0003 1.50033 16.0003C9.50345 16.0003 16.0003 9.5159 16.0003 1.50028C16.0003 1.15028 15.7597 0.847152 15.4191 0.769027Z" fill="#009DA9"/>
</g>
<defs>
<clipPath id="clip0">
<rect width="16" height="16" fill="white"/>
</clipPath>
</defs>
</svg>
