<svg width="8" height="9" viewBox="0 0 8 9" fill="none" xmlns="http://www.w3.org/2000/svg">
<path d="M3.97059 4.5C5.22381 4.5 6.2395 3.49277 6.2395 2.25C6.2395 1.00723 5.22381 0 3.97059 0C2.71737 0 1.70168 1.00723 1.70168 2.25C1.70168 3.49277 2.71737 4.5 3.97059 4.5ZM5.55882 5.0625H5.2628C4.86929 5.2418 4.43146 5.34375 3.97059 5.34375C3.50972 5.34375 3.07366 5.2418 2.67837 5.0625H2.38235C1.0671 5.0625 0 6.1207 0 7.425V8.15625C0 8.62207 0.381106 9 0.85084 9H7.09034C7.56007 9 7.94118 8.62207 7.94118 8.15625V7.425C7.94118 6.1207 6.87408 5.0625 5.55882 5.0625Z" fill="#179CA7"/>
</svg>
