<svg width="22" height="23" fill="none" xmlns="http://www.w3.org/2000/svg"><path d="M11 0C4.923 0 0 4.986 0 11.14c0 6.155 4.923 11.141 11 11.141s11-4.986 11-11.14C22 4.986 17.077 0 11 0zm0 4.313c2.156 0 3.903 1.77 3.903 3.953S13.156 12.219 11 12.219c-2.156 0-3.903-1.77-3.903-3.953 0-2.184 1.747-3.954 3.903-3.954zm0 15.453c-2.604 0-4.937-1.195-6.498-3.064.834-1.59 2.466-2.686 4.369-2.686.106 0 .213.018.315.049.576.189 1.18.31 1.814.31.634 0 1.242-.121 1.814-.31.102-.031.209-.05.315-.05 1.903 0 3.535 1.097 4.369 2.687-1.561 1.869-3.894 3.064-6.498 3.064z" fill="#666"/></svg>